<svg width="45" height="45" viewBox="0 0 45 45" fill="none" xmlns="http://www.w3.org/2000/svg">
<path d="M30.0304 20.083C31.3653 19.0283 32.4258 17.7393 33.2119 16.2158C33.998 14.6924 34.3911 13.0371 34.3911 11.25C34.3911 9.69727 34.0945 8.24707 33.5012 6.89941C32.9079 5.52246 32.0921 4.32129 31.0539 3.2959C30.0156 2.27051 28.7994 1.46484 27.4052 0.878906C26.0406 0.292969 24.5722 0 23 0C21.4278 0 19.9594 0.292969 18.5948 0.878906C17.2006 1.46484 15.9844 2.27051 14.9461 3.2959C13.9079 4.32129 13.0921 5.52246 12.4988 6.89941C11.9055 8.24707 11.6089 9.69727 11.6089 11.25C11.6089 13.0371 12.002 14.6924 12.7881 16.2158C13.5742 17.7393 14.6347 19.0283 15.9696 20.083C14.2194 20.7861 12.6175 21.709 11.1639 22.8516C9.68072 24.0234 8.41257 25.3638 7.35948 26.8726C6.3064 28.3813 5.48322 30.0439 4.88993 31.8604C4.29664 33.6475 4 35.5225 4 37.4854V45H42V37.4854C42 35.5225 41.7034 33.6475 41.1101 31.8604C40.5168 30.0439 39.6936 28.3813 38.6405 26.8726C37.5874 25.3638 36.3193 24.0234 34.8361 22.8516C33.3825 21.709 31.7806 20.7861 30.0304 20.083ZM15.3911 11.25C15.3911 9.19922 16.1401 7.43408 17.6382 5.95459C19.1362 4.4751 20.9235 3.73535 23 3.73535C25.0765 3.73535 26.8638 4.4751 28.3618 5.95459C29.8599 7.43408 30.6089 9.19922 30.6089 11.25C30.6089 13.3008 29.8599 15.0659 28.3618 16.5454C26.8638 18.0249 25.0765 18.7646 23 18.7646C20.9235 18.7646 19.1362 18.0249 17.6382 16.5454C16.1401 15.0659 15.3911 13.3008 15.3911 11.25ZM38.1733 41.2646H7.8267V37.4854C7.8267 35.4346 8.22717 33.501 9.0281 31.6846C9.82904 29.8682 10.9118 28.2788 12.2763 26.9165C13.6409 25.5542 15.2428 24.4775 17.082 23.6865C18.9508 22.8955 20.9235 22.5 23 22.5C25.0765 22.5 27.0492 22.8955 28.918 23.6865C30.7572 24.4775 32.3591 25.5542 33.7237 26.9165C35.0882 28.2788 36.171 29.8682 36.9719 31.6846C37.7728 33.501 38.1733 35.4346 38.1733 37.4854V41.2646Z" fill="url(#paint0_linear_1_172)"/>
<defs>
<linearGradient id="paint0_linear_1_172" x1="5.11126" y1="8.38374" x2="31.1186" y2="3.24461" gradientUnits="userSpaceOnUse">
<stop stop-color="#953FF7"/>
<stop offset="0.461" stop-color="#696BFC"/>
<stop offset="1" stop-color="#19C7FC"/>
</linearGradient>
</defs>
</svg>
