<svg width="99" height="72" viewBox="0 0 99 72" fill="none" xmlns="http://www.w3.org/2000/svg">
<g clip-path="url(#clip0_67_3305)">
<path d="M65.8105 78L95 53.6442V6H53.9613V47.434H68.7005L52.3236 63.9299L65.8105 78ZM62.1497 39.0889V14.248H86.8115V49.4717L66.6775 66.4528L63.7874 63.9299L78.623 49.0836V39.0889H62.1497ZM3 63.9299L16.9686 78L46.1581 53.6442V6H4.6377V47.434H19.377L3 63.9299ZM12.8262 39.0889V14.248H37.488V49.4717L17.3539 66.4528L14.4639 63.9299L29.2995 49.0836V39.0889H12.8262Z" fill="black"/>
<path d="M65.8105 72L95 47.6442V0H53.9613V41.434H68.7005L52.3236 57.9299L65.8105 72ZM62.1497 33.0889V8.24798H86.8115V43.4717L66.6775 60.4528L63.7874 57.9299L78.623 43.0836V33.0889H62.1497ZM3 57.9299L16.9686 72L46.1581 47.6442V0H4.6377V41.434H19.377L3 57.9299ZM12.8262 33.0889V8.24798H37.488V43.4717L17.3539 60.4528L14.4639 57.9299L29.2995 43.0836V33.0889H12.8262Z" fill="url(#paint0_linear_67_3305)"/>
</g>
<defs>
<linearGradient id="paint0_linear_67_3305" x1="26.8967" y1="112.607" x2="126.703" y2="53.8732" gradientUnits="userSpaceOnUse">
<stop stop-color="#1E2024"/>
<stop offset="1" stop-color="#23272B"/>
</linearGradient>
<clipPath id="clip0_67_3305">
<rect width="99" height="72" fill="white" transform="matrix(1 0 0 -1 0 72)"/>
</clipPath>
</defs>
</svg>
