<svg width="20" height="20" viewBox="0 0 20 20" fill="none" xmlns="http://www.w3.org/2000/svg">
<path d="M17.9688 6C17.9688 6.07692 17.9688 6.16026 17.9688 6.25C17.9688 6.33974 17.9688 6.42308 17.9688 6.5C17.9688 7.83333 17.7148 9.1859 17.207 10.5577C16.6992 11.9167 15.9505 13.1474 14.9609 14.25C13.9714 15.3526 12.7474 16.2564 11.2891 16.9615C9.84375 17.6538 8.17708 18 6.28906 18C5.71615 18 5.14974 17.9615 4.58984 17.8846C4.02995 17.8077 3.48633 17.6923 2.95898 17.5385C2.43164 17.3846 1.92057 17.1923 1.42578 16.9615C0.93099 16.7436 0.455729 16.4872 0 16.1923C0.15625 16.2051 0.31901 16.2147 0.488281 16.2212C0.657552 16.2276 0.820312 16.2308 0.976562 16.2308C1.92708 16.2308 2.8418 16.0833 3.7207 15.7885C4.59961 15.4936 5.39062 15.0641 6.09375 14.5C5.19531 14.5 4.39453 14.234 3.69141 13.7019C2.98828 13.1699 2.5 12.5 2.22656 11.6923C2.35677 11.7308 2.48372 11.7532 2.60742 11.7596C2.73112 11.766 2.86458 11.7692 3.00781 11.7692C3.20312 11.7692 3.38867 11.7596 3.56445 11.7404C3.74023 11.7212 3.91927 11.6923 4.10156 11.6538C3.16406 11.4615 2.38281 10.9936 1.75781 10.25C1.13281 9.50641 0.820312 8.65385 0.820312 7.69231C0.820312 7.67949 0.820312 7.66987 0.820312 7.66346C0.820312 7.65705 0.820312 7.64103 0.820312 7.61538C1.09375 7.76923 1.38346 7.89103 1.68945 7.98077C1.99544 8.07051 2.31771 8.11538 2.65625 8.11538C2.10938 7.76923 1.66667 7.29808 1.32812 6.70192C0.989583 6.10577 0.820312 5.46154 0.820312 4.76923C0.820312 4.41026 0.872396 4.05769 0.976562 3.71154C1.08073 3.36538 1.22396 3.03846 1.40625 2.73077C1.90104 3.34615 2.46094 3.90385 3.08594 4.40385C3.71094 4.90385 4.38151 5.33654 5.09766 5.70192C5.8138 6.06731 6.56901 6.35897 7.36328 6.57692C8.17057 6.79487 8.9974 6.92308 9.84375 6.96154C9.80469 6.80769 9.77539 6.65385 9.75586 6.5C9.73633 6.34615 9.72656 6.19231 9.72656 6.03846C9.72656 5.48718 9.83073 4.96154 10.0391 4.46154C10.2604 3.97436 10.5566 3.54808 10.9277 3.18269C11.2988 2.81731 11.7318 2.53205 12.2266 2.32692C12.7214 2.10897 13.2552 2 13.8281 2C14.4271 2 14.9837 2.11538 15.498 2.34615C16.0124 2.57692 16.4583 2.88461 16.8359 3.26923C17.3047 3.17949 17.7604 3.05449 18.2031 2.89423C18.6458 2.73397 19.0625 2.53846 19.4531 2.30769C19.2969 2.76923 19.0625 3.19231 18.75 3.57692C18.4375 3.96154 18.0729 4.28205 17.6562 4.53846C18.0599 4.48718 18.457 4.41026 18.8477 4.30769C19.2383 4.20513 19.6224 4.0641 20 3.88461C19.7266 4.28205 19.4173 4.66026 19.0723 5.01923C18.7272 5.3782 18.3594 5.70513 17.9688 6Z" fill="#C4CFDE"/>
</svg>
