<svg width="45" height="45" viewBox="0 0 45 45" fill="none" xmlns="http://www.w3.org/2000/svg">
<g clip-path="url(#clip0_1_182)">
<path d="M36.958 21.9287C37.6904 21.1963 38.2764 20.2954 38.7158 19.2261C39.1553 18.1567 39.375 17.0654 39.375 15.9521C39.375 13.6084 38.5547 11.6162 36.9141 9.97559C35.2734 8.33496 33.2812 7.51465 30.9375 7.51465C28.5938 7.51465 26.6016 8.33496 24.9609 9.97559C23.3203 11.6162 22.5 13.6084 22.5 15.9521C22.1191 15.6592 21.7017 15.3809 21.2476 15.1172C20.7935 14.8535 20.332 14.6338 19.8633 14.458C20.625 13.6963 21.2549 12.7808 21.7529 11.7114C22.251 10.6421 22.5 9.55078 22.5 8.4375C22.5 6.09375 21.6797 4.10156 20.0391 2.46094C18.3984 0.820312 16.4062 0 14.0625 0C11.7188 0 9.72656 0.820312 8.08594 2.46094C6.44531 4.10156 5.625 6.09375 5.625 8.4375C5.625 9.66797 5.84473 10.7886 6.28418 11.7993C6.72363 12.8101 7.30957 13.6963 8.04199 14.458C6.87012 15.0146 5.80078 15.7178 4.83398 16.5674C3.83789 17.4463 2.98096 18.4351 2.26318 19.5337C1.54541 20.6323 0.996094 21.8408 0.615234 23.1592C0.205078 24.4482 0 25.7959 0 27.2021V37.4854H16.875V45H45V34.6729C45 33.2666 44.7949 31.9189 44.3848 30.6299C44.0039 29.3408 43.4546 28.147 42.7368 27.0483C42.019 25.9497 41.1621 24.9609 40.166 24.082C39.1992 23.2031 38.1299 22.4854 36.958 21.9287ZM30.9375 11.25C32.2559 11.25 33.3691 11.7041 34.2773 12.6123C35.1855 13.5205 35.6396 14.6338 35.6396 15.9521C35.6396 17.2412 35.1855 18.3398 34.2773 19.248C33.3691 20.1562 32.2559 20.6104 30.9375 20.6104C29.6191 20.6104 28.5059 20.1562 27.5977 19.248C26.6895 18.3398 26.2354 17.2412 26.2354 15.9521C26.2354 14.6338 26.6895 13.5205 27.5977 12.6123C28.5059 11.7041 29.6191 11.25 30.9375 11.25ZM9.36035 8.4375C9.36035 7.11914 9.81445 6.00586 10.7227 5.09766C11.6309 4.18945 12.7441 3.73535 14.0625 3.73535C15.3809 3.73535 16.4941 4.18945 17.4023 5.09766C18.3105 6.00586 18.7646 7.11914 18.7646 8.4375C18.7646 9.75586 18.3105 10.8691 17.4023 11.7773C16.4941 12.6855 15.3809 13.1396 14.0625 13.1396C12.7441 13.1396 11.6309 12.6855 10.7227 11.7773C9.81445 10.8691 9.36035 9.75586 9.36035 8.4375ZM3.73535 27.2021C3.73535 25.7959 4.01367 24.4629 4.57031 23.2031C5.12695 21.9434 5.87402 20.8447 6.81152 19.9072C7.74902 18.9697 8.83301 18.2373 10.0635 17.71C11.3232 17.1533 12.6562 16.875 14.0625 16.875C16.0254 16.875 17.8711 17.4316 19.5996 18.5449C21.3281 19.6582 22.6025 21.1084 23.4229 22.8955C21.5479 24.0088 20.0317 25.5322 18.8745 27.4658C17.7173 29.3994 17.0508 31.4941 16.875 33.75H3.73535V27.2021ZM41.2646 41.2646H20.6104V34.6729C20.6104 33.2666 20.8887 31.9482 21.4453 30.7178C22.002 29.458 22.749 28.3594 23.6865 27.4219C24.624 26.4844 25.708 25.7373 26.9385 25.1807C28.1982 24.6533 29.5312 24.3896 30.9375 24.3896C32.3438 24.3896 33.6768 24.6533 34.9365 25.1807C36.167 25.7373 37.251 26.4844 38.1885 27.4219C39.126 28.3594 39.873 29.458 40.4297 30.7178C40.9863 31.9482 41.2646 33.2666 41.2646 34.6729V41.2646Z" fill="url(#paint0_linear_1_182)"/>
</g>
<defs>
<linearGradient id="paint0_linear_1_182" x1="1.31596" y1="8.38374" x2="31.6554" y2="1.2842" gradientUnits="userSpaceOnUse">
<stop stop-color="#953FF7"/>
<stop offset="0.461" stop-color="#696BFC"/>
<stop offset="1" stop-color="#19C7FC"/>
</linearGradient>
<clipPath id="clip0_1_182">
<rect width="45" height="45" fill="white" transform="matrix(1 0 0 -1 0 45)"/>
</clipPath>
</defs>
</svg>
