<svg width="42" height="42" viewBox="0 0 42 42" fill="none" xmlns="http://www.w3.org/2000/svg">
<path d="M36.5341 33.1534H9.05199L3.83282 6.57189H0V3H6.6055L7.99184 10.1022H40L37.9205 26.0511H11.1315L11.8247 29.5815H36.5341V33.1534ZM10.4383 22.5208H34.7808L36.0041 13.6326H8.68501L10.4383 22.5208ZM13.9042 34.8978C12.9528 34.8978 12.1373 35.2439 11.4577 35.9361C10.7781 36.6283 10.4383 37.4728 10.4383 38.4696C10.4383 39.4388 10.7781 40.2694 11.4577 40.9617C12.1373 41.6539 12.9528 42 13.9042 42C14.8828 42 15.7119 41.6539 16.3914 40.9617C17.071 40.2694 17.4108 39.4388 17.4108 38.4696C17.4108 37.4728 17.071 36.6283 16.3914 35.9361C15.7119 35.2439 14.8828 34.8978 13.9042 34.8978ZM31.315 34.8978C30.3636 34.8978 29.5481 35.2439 28.8685 35.9361C28.1889 36.6283 27.8491 37.4728 27.8491 38.4696C27.8491 39.4388 28.1889 40.2694 28.8685 40.9617C29.5481 41.6539 30.3636 42 31.315 42C32.2664 42 33.0819 41.6539 33.7615 40.9617C34.441 40.2694 34.7808 39.4388 34.7808 38.4696C34.7808 37.4728 34.441 36.6283 33.7615 35.9361C33.0819 35.2439 32.2664 34.8978 31.315 34.8978Z" fill="url(#paint0_linear_1_200)"/>
<defs>
<linearGradient id="paint0_linear_1_200" x1="1.16974" y1="10.2659" x2="28.0656" y2="3.8108" gradientUnits="userSpaceOnUse">
<stop stop-color="#953FF7"/>
<stop offset="0.461" stop-color="#696BFC"/>
<stop offset="1" stop-color="#19C7FC"/>
</linearGradient>
</defs>
</svg>
