<svg width="42" height="42" viewBox="0 0 42 42" fill="none" xmlns="http://www.w3.org/2000/svg">
<path d="M31.5103 17.5137V10.5C31.5103 9.05078 31.2366 7.69727 30.6891 6.43945C30.1417 5.1543 29.3891 4.0332 28.4311 3.07617C27.4731 2.11914 26.3509 1.36719 25.0645 0.820312C23.8055 0.273438 22.4506 0 21 0C19.5494 0 18.1945 0.273438 16.9355 0.820312C15.6491 1.36719 14.5269 2.11914 13.5689 3.07617C12.6109 4.0332 11.8583 5.1543 11.3109 6.43945C10.7634 7.69727 10.4897 9.05078 10.4897 10.5V17.5137H7V42H35V17.5137H31.5103ZM13.9795 10.5C13.9795 8.58594 14.6706 6.93848 16.0528 5.55762C17.435 4.17676 19.0841 3.48633 21 3.48633C22.9159 3.48633 24.565 4.17676 25.9472 5.55762C27.3294 6.93848 28.0205 8.58594 28.0205 10.5V17.5137H13.9795V10.5ZM31.5103 38.5137H10.4897V21H31.5103V38.5137Z" fill="url(#paint0_linear_32_182)"/>
<defs>
<linearGradient id="paint0_linear_32_182" x1="7.81882" y1="7.82483" x2="27.2573" y2="4.79237" gradientUnits="userSpaceOnUse">
<stop stop-color="#953FF7"/>
<stop offset="0.461" stop-color="#696BFC"/>
<stop offset="1" stop-color="#19C7FC"/>
</linearGradient>
</defs>
</svg>
