<svg width="42" height="42" viewBox="0 0 42 42" fill="none" xmlns="http://www.w3.org/2000/svg">
<path d="M42 25.8809V16.1191L36.9141 14.8887L36.5859 13.9863L39.375 9.63867L32.3613 2.625L28.0137 5.41406L26.9473 5.08594L25.8809 0H16.1191L14.8887 5.08594L13.9863 5.41406L9.63867 2.625L2.625 9.63867L5.41406 13.9863L5.08594 14.8887L0 16.1191V25.8809L5.08594 27.1113L5.41406 28.0137L2.625 32.3613L9.63867 39.375L13.9863 36.5859L15.0527 36.9141L16.1191 42H25.8809L27.1113 36.9141L28.1777 36.5859L32.5664 39.375L39.5391 32.3613L36.5859 28.0137L36.9141 26.9473L42 25.8809ZM34.8223 31.8691L31.8691 34.8223L28.3418 32.5664L23.9941 34.2891L23.0918 38.5137H18.9082L18.0059 34.4941L13.6582 32.7305L10.1309 34.9863L7.17773 32.0332L9.43359 28.5059L7.71094 24.1582L3.48633 23.0918V18.9082L7.50586 18.0059L9.26953 13.6582L7.01367 10.1309L9.9668 7.17773L13.4941 9.43359L17.8418 7.71094L18.9082 3.48633H23.0918L23.9941 7.50586L28.3418 9.26953L31.8691 7.01367L34.8223 9.9668L32.5664 13.4941L34.2891 17.8418L38.3086 18.7441V22.9277L34.2891 23.7891L32.5664 28.1777L34.8223 31.8691ZM21 12.2637C19.7695 12.2637 18.6211 12.4824 17.5547 12.9199C16.4883 13.3848 15.5654 14.0068 14.7861 14.7861C14.0068 15.5654 13.3848 16.4883 12.9199 17.5547C12.4824 18.6211 12.2637 19.7695 12.2637 21C12.2637 22.2305 12.4824 23.3789 12.9199 24.4453C13.3848 25.5117 14.0068 26.4346 14.7861 27.2139C15.5654 27.9932 16.4883 28.6152 17.5547 29.0801C18.6211 29.5176 19.7695 29.7363 21 29.7363C22.2305 29.7363 23.3789 29.5176 24.4453 29.0801C25.5117 28.6152 26.4346 27.9932 27.2139 27.2139C27.9932 26.4346 28.6152 25.5117 29.0801 24.4453C29.5176 23.3789 29.7363 22.2305 29.7363 21C29.7363 19.7695 29.5176 18.6211 29.0801 17.5547C28.6152 16.4883 27.9932 15.5654 27.2139 14.7861C26.4346 14.0068 25.5117 13.3848 24.4453 12.9199C23.3789 12.4824 22.2305 12.2637 21 12.2637ZM21 26.25C19.5234 26.25 18.2793 25.7441 17.2676 24.7324C16.2559 23.7207 15.75 22.4766 15.75 21C15.75 19.5234 16.2559 18.2793 17.2676 17.2676C18.2793 16.2559 19.5234 15.75 21 15.75C22.4766 15.75 23.7207 16.2559 24.7324 17.2676C25.7441 18.2793 26.25 19.5234 26.25 21C26.25 22.4766 25.7441 23.7207 24.7324 24.7324C23.7207 25.7441 22.4766 26.25 21 26.25Z" fill="url(#paint0_linear_32_188)"/>
<defs>
<linearGradient id="paint0_linear_32_188" x1="1.22823" y1="7.82483" x2="29.5451" y2="1.19859" gradientUnits="userSpaceOnUse">
<stop stop-color="#953FF7"/>
<stop offset="0.461" stop-color="#696BFC"/>
<stop offset="1" stop-color="#19C7FC"/>
</linearGradient>
</defs>
</svg>
