<svg width="42" height="42" viewBox="0 0 42 42" fill="none" xmlns="http://www.w3.org/2000/svg">
<g clip-path="url(#clip0_1_230)">
<path d="M42 0H7.01367V34.9863H42V0ZM38.5137 31.5H10.5V3.48633H38.5137V31.5ZM0 8.73633V42H33.2637V38.5137H3.48633V8.73633H0ZM15.2168 29.9414L12.7559 27.4805L21 19.0723L24.4863 22.5586L31.5 15.5859L36.2168 20.3027L33.7559 22.7637L31.5 20.6309L24.4863 27.6445L21 24.1582L15.2168 29.9414ZM13.9863 9.63867C13.9863 8.92773 14.2529 8.3125 14.7861 7.79297C15.3193 7.27344 15.9277 7.01367 16.6113 7.01367C17.3223 7.01367 17.9375 7.27344 18.457 7.79297C18.9766 8.3125 19.2363 8.92773 19.2363 9.63867C19.2363 10.3223 18.9766 10.9307 18.457 11.4639C17.9375 11.9971 17.3223 12.2637 16.6113 12.2637C15.9277 12.2637 15.3193 11.9971 14.7861 11.4639C14.2529 10.9307 13.9863 10.3223 13.9863 9.63867Z" fill="url(#paint0_linear_1_230)"/>
</g>
<defs>
<linearGradient id="paint0_linear_1_230" x1="1.22823" y1="7.82483" x2="29.5451" y2="1.19859" gradientUnits="userSpaceOnUse">
<stop stop-color="#953FF7"/>
<stop offset="0.461" stop-color="#696BFC"/>
<stop offset="1" stop-color="#19C7FC"/>
</linearGradient>
<clipPath id="clip0_1_230">
<rect width="42" height="42" fill="white" transform="matrix(1 0 0 -1 0 42)"/>
</clipPath>
</defs>
</svg>
