<svg width="20" height="20" viewBox="0 0 20 20" fill="none" xmlns="http://www.w3.org/2000/svg">
<g clip-path="url(#clip0_1_437)">
<path d="M10 1.79688C11.3411 1.79688 12.2135 1.80338 12.6172 1.81641C13.0208 1.82943 13.4896 1.84896 14.0234 1.875C14.5312 1.88802 14.9251 1.92708 15.2051 1.99219C15.485 2.05729 15.7161 2.1224 15.8984 2.1875C16.1328 2.27865 16.3411 2.38607 16.5234 2.50977C16.7057 2.63346 16.875 2.77344 17.0312 2.92969C17.2005 3.09896 17.347 3.27474 17.4707 3.45703C17.5944 3.63932 17.6953 3.84115 17.7734 4.0625C17.8516 4.25781 17.9232 4.49544 17.9883 4.77539C18.0534 5.05534 18.099 5.44271 18.125 5.9375C18.138 6.48438 18.1543 6.95964 18.1738 7.36328C18.1934 7.76693 18.2031 8.64583 18.2031 10C18.2031 11.3411 18.1966 12.2135 18.1836 12.6172C18.1706 13.0208 18.151 13.4896 18.125 14.0234C18.112 14.5312 18.0729 14.9251 18.0078 15.2051C17.9427 15.485 17.8776 15.7161 17.8125 15.8984C17.7214 16.1328 17.6139 16.3411 17.4902 16.5234C17.3665 16.7057 17.2266 16.875 17.0703 17.0312C16.901 17.2005 16.7253 17.347 16.543 17.4707C16.3607 17.5944 16.1589 17.6953 15.9375 17.7734C15.7422 17.8516 15.5046 17.9232 15.2246 17.9883C14.9447 18.0534 14.5573 18.099 14.0625 18.125C13.5156 18.138 13.0404 18.1543 12.6367 18.1738C12.2331 18.1934 11.3542 18.2031 10 18.2031C8.65885 18.2031 7.78646 18.1966 7.38281 18.1836C6.97917 18.1706 6.51042 18.151 5.97656 18.125C5.46875 18.112 5.07487 18.0729 4.79492 18.0078C4.51497 17.9427 4.28385 17.8776 4.10156 17.8125C3.86719 17.7214 3.65885 17.6139 3.47656 17.4902C3.29427 17.3665 3.125 17.2266 2.96875 17.0703C2.79948 16.901 2.65299 16.7253 2.5293 16.543C2.4056 16.3607 2.30469 16.1589 2.22656 15.9375C2.14844 15.7422 2.07682 15.5046 2.01172 15.2246C1.94661 14.9447 1.90104 14.5573 1.875 14.0625C1.86198 13.5156 1.8457 13.0404 1.82617 12.6367C1.80664 12.2331 1.79688 11.3542 1.79688 10C1.79688 8.65885 1.80339 7.78646 1.81641 7.38281C1.82943 6.97917 1.84896 6.51042 1.875 5.97656C1.88802 5.46875 1.92708 5.07487 1.99219 4.79492C2.05729 4.51497 2.1224 4.28385 2.1875 4.10156C2.27865 3.86719 2.38607 3.65885 2.50977 3.47656C2.63346 3.29427 2.77344 3.125 2.92969 2.96875C3.09896 2.79948 3.27474 2.65299 3.45703 2.5293C3.63932 2.4056 3.84115 2.30469 4.0625 2.22656C4.25781 2.14844 4.49544 2.07682 4.77539 2.01172C5.05534 1.94662 5.44271 1.90104 5.9375 1.875C6.48438 1.86198 6.95964 1.8457 7.36328 1.82617C7.76693 1.80664 8.64583 1.79688 10 1.79688ZM10 0C8.63281 0 7.74089 0.00650978 7.32422 0.0195312C6.90755 0.0325527 6.43229 0.052084 5.89844 0.078125C5.35156 0.0911465 4.88607 0.136719 4.50195 0.214844C4.11784 0.292969 3.77604 0.390625 3.47656 0.507812C3.15104 0.638021 2.83854 0.797525 2.53906 0.986328C2.23958 1.17513 1.95312 1.40625 1.67969 1.67969C1.40625 1.95312 1.17839 2.23633 0.996094 2.5293C0.813802 2.82227 0.651042 3.13802 0.507812 3.47656C0.390625 3.78906 0.296224 4.13411 0.224609 4.51172C0.152995 4.88932 0.104167 5.35156 0.078125 5.89844C0.0651042 6.41927 0.0488281 6.89128 0.0292969 7.31445C0.00976562 7.73763 0 8.63281 0 10C0 11.3672 0.00651042 12.2591 0.0195312 12.6758C0.0325521 13.0924 0.0520833 13.5677 0.078125 14.1016C0.0911458 14.6484 0.136719 15.1139 0.214844 15.498C0.292969 15.8822 0.390625 16.224 0.507812 16.5234C0.638021 16.849 0.797526 17.1615 0.986328 17.4609C1.17513 17.7604 1.40625 18.0469 1.67969 18.3203C1.95312 18.5938 2.23633 18.8216 2.5293 19.0039C2.82227 19.1862 3.13802 19.349 3.47656 19.4922C3.78906 19.6094 4.13411 19.7038 4.51172 19.7754C4.88932 19.847 5.35156 19.8958 5.89844 19.9219C6.41927 19.9349 6.89128 19.9512 7.31445 19.9707C7.73763 19.9902 8.63281 20 10 20C11.3672 20 12.2591 19.9935 12.6758 19.9805C13.0924 19.9674 13.5677 19.9479 14.1016 19.9219C14.6484 19.9089 15.1139 19.8633 15.498 19.7852C15.8822 19.707 16.224 19.6094 16.5234 19.4922C16.849 19.362 17.1615 19.2025 17.4609 19.0137C17.7604 18.8249 18.0469 18.5938 18.3203 18.3203C18.5938 18.0469 18.8216 17.7637 19.0039 17.4707C19.1862 17.1777 19.349 16.862 19.4922 16.5234C19.6094 16.2109 19.7038 15.8659 19.7754 15.4883C19.847 15.1107 19.8958 14.6484 19.9219 14.1016C19.9349 13.5807 19.9512 13.1087 19.9707 12.6855C19.9902 12.2624 20 11.3672 20 10C20 8.63281 19.9935 7.74089 19.9805 7.32422C19.9674 6.90755 19.9479 6.43229 19.9219 5.89844C19.9089 5.35156 19.8633 4.88607 19.7852 4.50195C19.707 4.11784 19.6094 3.77604 19.4922 3.47656C19.362 3.15104 19.2025 2.83854 19.0137 2.53906C18.8249 2.23958 18.5938 1.95312 18.3203 1.67969C18.0469 1.40625 17.7637 1.17838 17.4707 0.996094C17.1777 0.813803 16.862 0.651041 16.5234 0.507812C16.2109 0.390625 15.8659 0.296225 15.4883 0.224609C15.1107 0.152994 14.6484 0.104166 14.1016 0.078125C13.5807 0.0651035 13.1087 0.0488281 12.6855 0.0292969C12.2624 0.00976562 11.3672 0 10 0ZM10 4.84375C9.28385 4.84375 8.61328 4.98047 7.98828 5.25391C7.36328 5.51432 6.81641 5.87891 6.34766 6.34766C5.87891 6.81641 5.51432 7.36328 5.25391 7.98828C4.98047 8.61328 4.84375 9.28385 4.84375 10C4.84375 10.7161 4.98047 11.3867 5.25391 12.0117C5.51432 12.6367 5.87891 13.1836 6.34766 13.6523C6.81641 14.1211 7.36328 14.4857 7.98828 14.7461C8.61328 15.0195 9.28385 15.1562 10 15.1562C10.7161 15.1562 11.3867 15.0195 12.0117 14.7461C12.6367 14.4857 13.1836 14.1211 13.6523 13.6523C14.1211 13.1836 14.4857 12.6367 14.7461 12.0117C15.0195 11.3867 15.1562 10.7161 15.1562 10C15.1562 9.28385 15.0195 8.61328 14.7461 7.98828C14.4857 7.36328 14.1211 6.81641 13.6523 6.34766C13.1836 5.87891 12.6367 5.51432 12.0117 5.25391C11.3867 4.98047 10.7161 4.84375 10 4.84375ZM10 13.3594C9.08854 13.3594 8.30078 13.0306 7.63672 12.373C6.97266 11.7155 6.64062 10.9245 6.64062 10C6.64062 9.08854 6.9694 8.30078 7.62695 7.63672C8.2845 6.97266 9.07552 6.64062 10 6.64062C10.9115 6.64062 11.6992 6.9694 12.3633 7.62695C13.0273 8.2845 13.3594 9.07552 13.3594 10C13.3594 10.9115 13.0306 11.6992 12.373 12.3633C11.7155 13.0273 10.9245 13.3594 10 13.3594ZM16.5234 4.64844C16.5234 4.97396 16.4128 5.25716 16.1914 5.49805C15.9701 5.73893 15.6901 5.85938 15.3516 5.85938C15.026 5.85938 14.7428 5.74219 14.502 5.50781C14.2611 5.27344 14.1406 4.98698 14.1406 4.64844C14.1406 4.32292 14.2578 4.04622 14.4922 3.81836C14.7266 3.59049 15.013 3.47656 15.3516 3.47656C15.6771 3.47656 15.9538 3.58724 16.1816 3.80859C16.4095 4.02995 16.5234 4.3099 16.5234 4.64844Z" fill="#C4CFDE"/>
</g>
<defs>
<clipPath id="clip0_1_437">
<rect width="20" height="20" fill="white" transform="matrix(1 0 0 -1 0 20)"/>
</clipPath>
</defs>
</svg>
