<svg width="20" height="20" viewBox="0 0 20 20" fill="none" xmlns="http://www.w3.org/2000/svg">
<path d="M11.5038 20V10.8594H14.4361L14.8872 7.30469H11.5038V5.03906C11.5038 4.53125 11.6071 4.11784 11.8139 3.79883C12.0207 3.47982 12.4812 3.32031 13.1955 3.32031H15V0.15625C14.8496 0.117188 14.5301 0.0813808 14.0414 0.0488281C13.5526 0.0162754 12.995 0 12.3684 0C11.7168 0 11.1153 0.104166 10.5639 0.3125C10.0251 0.507812 9.56454 0.804037 9.18233 1.20117C8.80013 1.59831 8.50251 2.08984 8.28947 2.67578C8.07644 3.2487 7.96992 3.91927 7.96992 4.6875V7.30469H5V10.8594H7.96992V20H11.5038Z" fill="#C4CFDE"/>
</svg>
