<svg width="42" height="42" viewBox="0 0 42 42" fill="none" xmlns="http://www.w3.org/2000/svg">
<path d="M29.875 27.3164V22.7637C29.875 22.627 29.875 21.8066 29.875 20.3027C29.9028 18.8262 29.7014 17.0078 29.2708 14.8477C28.8403 12.6875 28.0972 10.377 27.0417 7.91602C25.9861 5.42773 24.3889 3.14453 22.25 1.06641L21 0L19.75 1.23047C17.6111 3.33594 16.0139 5.61914 14.9583 8.08008C13.9028 10.541 13.1597 12.8447 12.7292 14.9912C12.2986 17.1377 12.0972 18.9492 12.125 20.4258C12.125 21.875 12.125 22.6543 12.125 22.7637V27.4805L5 40.2363L8.20833 42L12.125 34.9863V38.5137H19.2083V42H22.7917V38.5137H29.875V34.8223L33.7917 42L37 40.0723L29.875 27.3164ZM26.3333 22.7637V34.9863H22.7917V28.0137H19.2083V34.9863H15.6667V22.5586C15.6667 22.5312 15.6667 21.9297 15.6667 20.7539C15.6389 19.5781 15.7708 18.1221 16.0625 16.3857C16.3542 14.6494 16.875 12.7695 17.625 10.7461C18.375 8.72266 19.5 6.83594 21 5.08594C22.4722 6.83594 23.5694 8.72266 24.2917 10.7461C25.0417 12.7969 25.5694 14.7041 25.875 16.4678C26.1806 18.2314 26.3333 19.7148 26.3333 20.918C26.3333 22.0938 26.3333 22.709 26.3333 22.7637ZM21 13.9863C21.9722 13.9863 22.8056 14.3281 23.5 15.0117C24.1944 15.6953 24.5417 16.5293 24.5417 17.5137C24.5417 18.4707 24.1944 19.291 23.5 19.9746C22.8056 20.6582 21.9722 21 21 21C20.0278 21 19.1944 20.6582 18.5 19.9746C17.8056 19.291 17.4583 18.4707 17.4583 17.5137C17.4583 16.5293 17.8056 15.6953 18.5 15.0117C19.1944 14.3281 20.0278 13.9863 21 13.9863Z" fill="url(#paint0_linear_1_236)"/>
<defs>
<linearGradient id="paint0_linear_1_236" x1="5.93579" y1="7.82483" x2="27.9909" y2="3.89267" gradientUnits="userSpaceOnUse">
<stop stop-color="#953FF7"/>
<stop offset="0.461" stop-color="#696BFC"/>
<stop offset="1" stop-color="#19C7FC"/>
</linearGradient>
</defs>
</svg>
