<svg width="42" height="42" viewBox="0 0 42 42" fill="none" xmlns="http://www.w3.org/2000/svg">
<g clip-path="url(#clip0_1_224)">
<path d="M28.0137 24.4863L42 10.5L31.5 0L17.5137 13.9863L21.3691 17.8418L17.8418 21.3691L13.9863 17.5137L0 31.5L10.5 42L24.4863 28.0137L20.6309 24.1582L24.1582 20.6309L28.0137 24.4863ZM19.2363 28.0137L10.5 36.75L5.25 31.5L13.9863 22.7637L15.2168 23.9941L12.2637 27.1113L14.8887 29.7363L17.8418 26.7832L19.2363 28.0137ZM22.7637 13.9863L31.5 5.25L36.75 10.5L28.0137 19.2363L26.7832 18.0059L29.7363 14.8887L27.1113 12.2637L24.1582 15.2168L22.7637 13.9863Z" fill="url(#paint0_linear_1_224)"/>
</g>
<defs>
<linearGradient id="paint0_linear_1_224" x1="1.22823" y1="7.82483" x2="29.5451" y2="1.19859" gradientUnits="userSpaceOnUse">
<stop stop-color="#953FF7"/>
<stop offset="0.461" stop-color="#696BFC"/>
<stop offset="1" stop-color="#19C7FC"/>
</linearGradient>
<clipPath id="clip0_1_224">
<rect width="42" height="42" fill="white" transform="matrix(1 0 0 -1 0 42)"/>
</clipPath>
</defs>
</svg>
