<svg width="42" height="42" viewBox="0 0 42 42" fill="none" xmlns="http://www.w3.org/2000/svg">
<path d="M12.0859 10.5H8.60368C8.60368 9.05078 8.88712 7.69727 9.45399 6.43945C9.99387 5.1543 10.7294 4.0332 11.6607 3.07617C12.592 2.11914 13.692 1.36719 14.9607 0.820312C16.2294 0.273438 17.5656 0 18.9693 0C20.4 0 21.7497 0.273438 23.0184 0.820312C24.2601 1.36719 25.3534 2.11914 26.2982 3.07617C27.2429 4.0332 27.9853 5.1543 28.5252 6.43945C29.065 7.69727 29.335 9.05078 29.335 10.5H25.8933C25.8933 8.58594 25.2184 6.93848 23.8687 5.55762C22.519 4.17676 20.8859 3.48633 18.9693 3.48633C17.0798 3.48633 15.4601 4.17676 14.1104 5.55762C12.7607 6.93848 12.0859 8.58594 12.0859 10.5ZM38 26.6191V42H16.5804L6.53865 31.8691C6.02577 31.3223 5.6411 30.7139 5.38466 30.0439C5.12822 29.374 5 28.6973 5 28.0137C5 27.3027 5.12822 26.6123 5.38466 25.9424C5.6411 25.2725 6.02577 24.6777 6.53865 24.1582C7.59141 23.0918 8.80614 22.5449 10.1828 22.5176C11.5595 22.4902 12.7607 22.9141 13.7865 23.7891V10.5C13.7865 9.02344 14.2859 7.7793 15.2847 6.76758C16.2834 5.75586 17.5117 5.25 18.9693 5.25C20.454 5.25 21.689 5.75586 22.6742 6.76758C23.6595 7.7793 24.1521 9.02344 24.1521 10.5V19.6055L34.7202 22.2305C35.665 22.4766 36.4479 23.0029 37.0687 23.8096C37.6896 24.6162 38 25.5527 38 26.6191ZM34.5178 26.6191C34.5178 26.4277 34.4503 26.25 34.3153 26.0859C34.1804 25.9219 34.0184 25.7988 33.8294 25.7168L20.7104 22.3945V10.5C20.7104 9.98047 20.5552 9.55664 20.2448 9.22852C19.9344 8.90039 19.5092 8.73633 18.9693 8.73633C18.4564 8.73633 18.0448 8.90039 17.7344 9.22852C17.4239 9.55664 17.2687 9.98047 17.2687 10.5V32.1973L11.7215 26.6191C11.3706 26.2637 10.9319 26.0859 10.4055 26.0859C9.87914 26.0859 9.4 26.2637 8.9681 26.6191C8.77914 26.7832 8.64417 26.9883 8.56319 27.2344C8.48221 27.4805 8.44172 27.7402 8.44172 28.0137C8.44172 28.2598 8.48221 28.5059 8.56319 28.752C8.64417 28.998 8.77914 29.2168 8.9681 29.4082L17.9571 38.5137H34.5178V26.6191Z" fill="url(#paint0_linear_1_206)"/>
<defs>
<linearGradient id="paint0_linear_1_206" x1="5.96504" y1="7.82483" x2="28.6649" y2="3.65123" gradientUnits="userSpaceOnUse">
<stop stop-color="#953FF7"/>
<stop offset="0.461" stop-color="#696BFC"/>
<stop offset="1" stop-color="#19C7FC"/>
</linearGradient>
</defs>
</svg>
