<svg width="33" height="85" viewBox="0 0 33 85" fill="none" xmlns="http://www.w3.org/2000/svg">
<path fill-rule="evenodd" clip-rule="evenodd" d="M2.26997 1.86414C4.17147 -0.138305 7.2544 -0.138305 9.1559 1.86414L17.1209 10.252L24.528 2.45087C26.4294 0.448336 29.5121 0.448336 31.4135 2.45087C33.3149 4.45341 33.3149 7.70017 31.4135 9.7027L24.0068 17.5034L31.4155 25.3054C33.317 27.3078 33.317 30.5544 31.4155 32.5568C29.514 34.5593 26.431 34.5593 24.5295 32.5568L17.1212 24.7553L9.15513 33.1451C7.25373 35.1476 4.17096 35.1476 2.26957 33.1451C0.368171 31.1426 0.368171 27.8958 2.26957 25.8933L10.2353 17.5038L2.26997 9.11561C0.368469 7.11317 0.368469 3.86658 2.26997 1.86414ZM2.26925 51.5795C4.17048 49.5768 7.25299 49.5768 9.15422 51.5795L17.117 59.9672L24.5266 52.1639C26.4281 50.1614 29.511 50.1614 31.4125 52.1639C33.3139 54.1664 33.3139 57.413 31.4125 59.4155L24.002 67.2196L31.4107 75.0237C33.3119 77.0264 33.3119 80.2734 31.4107 82.2761C29.5095 84.2788 26.427 84.2788 24.5257 82.2761L17.1162 74.4711L9.15323 82.8571C7.25176 84.8595 4.16888 84.8595 2.26741 82.8571C0.365942 80.8546 0.365941 77.608 2.26741 75.6055L10.2312 67.2187L2.26925 58.8319C0.368016 56.8292 0.368016 53.5822 2.26925 51.5795Z" fill="url(#paint0_linear_53_2929)"/>
<defs>
<linearGradient id="paint0_linear_53_2929" x1="16.8415" y1="0.362305" x2="16.8415" y2="84.3589" gradientUnits="userSpaceOnUse">
<stop stop-color="#3F3C44"/>
<stop offset="1" stop-color="#A09FFF"/>
</linearGradient>
</defs>
</svg>
